<?xml version="1.0" encoding="iso-8859-1"?>
<!-- Generator: Adobe Illustrator 19.1.1, SVG Export Plug-In . SVG Version: 6.00 Build 0)  -->
<svg version="1.1" id="Layer_1" xmlns="http://www.w3.org/2000/svg" xmlns:xlink="http://www.w3.org/1999/xlink" x="0px" y="0px"
	 viewBox="0 0 40 40" style="enable-background:new 0 0 40 40;" xml:space="preserve">
<g>
	<g>
		<path style="fill:#E1EBF2;" d="M20,15.5c-1.378,0-2.5-1.122-2.5-2.5c0-0.091,0.014-0.178,0.026-0.265l0.054-0.38l-0.344-0.216
			C15.574,11.431,14.5,9.806,14.5,8c0-2.481,2.019-4.5,4.5-4.5c0.658,0,1.312,0.155,1.943,0.459l0.338,0.164l0.251-0.28
			C22.309,2.977,23.363,2.5,24.5,2.5c1.017,0,1.99,0.391,2.74,1.1l0.413,0.39l0.335-0.458C28.466,2.876,29.2,2.5,30,2.5
			c0.55,0,1.079,0.187,1.53,0.539l0.33,0.258l0.312-0.279C32.544,2.684,33.016,2.5,33.5,2.5c0.37,0,0.736,0.107,1.06,0.311
			l0.287,0.18l0.274-0.2C35.382,2.601,35.686,2.5,36,2.5c0.827,0,1.5,0.673,1.5,1.5S36.827,5.5,36,5.5
			c-0.105,0-0.219-0.015-0.346-0.045l-0.329-0.079L35.13,5.652C34.753,6.183,34.144,6.5,33.5,6.5c-0.289,0-0.577-0.068-0.857-0.201
			l-0.376-0.18l-0.244,0.338C31.544,7.12,30.807,7.5,30,7.5c-0.342,0-0.678-0.071-0.998-0.21l-0.521-0.227l-0.158,0.546
			c-0.461,1.589-1.881,2.739-3.533,2.86l-0.33,0.024l-0.107,0.313c-0.25,0.729-0.809,1.291-1.536,1.544l-0.359,0.125l0.026,0.398
			l0.011,0.093C22.5,14.378,21.378,15.5,20,15.5z"/>
	</g>
	<g>
		<path style="fill:#B0C1D4;" d="M36,3c0.551,0,1,0.449,1,1s-0.449,1-1,1c-0.065,0-0.141-0.01-0.231-0.032l-0.657-0.156l-0.39,0.551
			C34.439,5.762,33.982,6,33.5,6c-0.214,0-0.429-0.051-0.641-0.152l-0.753-0.36l-0.489,0.677C31.234,6.695,30.644,7,30,7
			c-0.273,0-0.541-0.057-0.797-0.168L28.16,6.376l-0.317,1.093c-0.403,1.39-1.645,2.395-3.089,2.5l-0.659,0.048l-0.214,0.625
			c-0.199,0.582-0.647,1.032-1.227,1.234l-0.714,0.249l0.045,0.755c0.003,0.047,0.008,0.093,0.016,0.151
			C21.982,14.12,21.092,15,20,15c-1.103,0-2-0.897-2-2c0-0.066,0.012-0.129,0.021-0.192l0.01-0.075l0.102-0.755l-0.7-0.299
			C15.955,11.05,15,9.605,15,8c0-2.206,1.794-4,4-4c0.581,0,1.162,0.138,1.726,0.41l0.677,0.327l0.502-0.56
			C22.585,3.418,23.506,3,24.5,3c0.888,0,1.739,0.342,2.397,0.963l0.824,0.779l0.67-0.916C28.775,3.301,29.361,3,30,3
			c0.553,0,0.97,0.235,1.222,0.433l0.66,0.516l0.624-0.559C32.704,3.212,33.037,3,33.5,3c0.279,0,0.546,0.079,0.793,0.234
			l0.574,0.361l0.548-0.4C35.537,3.106,35.738,3,36,3 M36,2c-0.44,0-0.844,0.147-1.174,0.388C34.441,2.146,33.988,2,33.5,2
			c-0.641,0-1.219,0.248-1.662,0.645C31.329,2.247,30.696,2,30,2c-0.995,0-1.871,0.49-2.417,1.237C26.777,2.475,25.697,2,24.5,2
			c-1.332,0-2.516,0.59-3.34,1.509C20.504,3.193,19.777,3,19,3c-2.761,0-5,2.239-5,5c0,2.066,1.253,3.837,3.04,4.6
			C17.023,12.732,17,12.863,17,13c0,1.657,1.343,3,3,3s3-1.343,3-3c0-0.061-0.014-0.118-0.018-0.178
			c0.867-0.302,1.547-0.985,1.844-1.855c1.902-0.139,3.462-1.448,3.976-3.219C29.17,7.908,29.574,8,30,8
			c1.002,0,1.883-0.496,2.428-1.25C32.754,6.906,33.115,7,33.5,7c0.843,0,1.585-0.42,2.037-1.059C35.687,5.976,35.84,6,36,6
			c1.105,0,2-0.895,2-2C38,2.895,37.105,2,36,2L36,2z"/>
	</g>
</g>
<g>
	<g>
		<path style="fill:#839CB2;" d="M2.5,37.5v-0.322c0.971-1.201,7.888-9.916,13.809-21.678h7.383
			C29.612,27.262,36.529,35.977,37.5,37.178V37.5H2.5z"/>
		<path style="fill:#66798F;" d="M23.384,16c5.385,10.626,11.545,18.732,13.335,21H3.281c1.789-2.268,7.95-10.374,13.335-21H23.384
			 M24,15h-8C9.571,27.857,2,37,2,37v1h36v-1C38,37,30.429,27.857,24,15L24,15z"/>
	</g>
</g>
<g>
	<path style="fill:#FFEEA3;" d="M15.941,15.114c-1.618,3.227-3.305,6.216-4.926,8.886c0.461,0,1.032,0,1.648,0c1.552,0,3-4,4.018-4
		c1.018,0-0.02,5,1.32,5c1.339,0,1.22-4,2.238-4c1.018,0,1.96,7,3.031,7c1.071,0,0.489-7,0.73-7c1.071,0,4.799,9,7.571,9
		c0.133,0,0.66,0,1.279,0c-2.28-3.344-5.037-7.709-7.698-12.759C24.766,16.509,24.381,15.762,24,15h-7.923
		c-0.01,0.017-0.017,0.037-0.033,0.049C16.015,15.071,15.981,15.093,15.941,15.114z"/>
</g>
<g>
	<path style="fill:#FFEEA3;" d="M28.513,24.181c-1.7-2.8-3.267-5.611-4.683-8.407L23.691,15.5h0c0.494,0.979,0.995,1.93,1.498,2.865
		c0,0,0.456,0.846,0.646,1.192l0.557,0.996c0.189,0.335,0.377,0.668,0.566,0.996l0.581,1.001L28.513,24.181z M14.713,18.555
		c0.559-1.034,1.088-2.05,1.594-3.055l-0.137,0.274C15.704,16.693,15.218,17.621,14.713,18.555z"/>
	<path style="fill:#F5C276;" d="M24,15h-7.923c-0.01,0.017-0.017,0.037-0.033,0.049c-0.029,0.022-0.063,0.044-0.103,0.065
		c-0.001,0.003-0.003,0.005-0.004,0.007c-0.807,1.609-1.631,3.16-2.456,4.641c-0.012,0.022-0.025,0.043-0.037,0.065
		c-0.401,0.719-0.801,1.422-1.2,2.106c-0.015,0.026-0.03,0.05-0.045,0.076c-0.397,0.681-0.792,1.345-1.183,1.989
		c0.334,0,0.737,0,1.162,0c1.469-2.441,2.982-5.124,4.439-8h6.768c2.786,5.498,5.775,10.311,8.264,14c0.193,0,0.654,0,1.203,0
		c0,0,0,0,0-0.001c-0.275-0.403-0.554-0.818-0.842-1.25c-0.035-0.053-0.071-0.108-0.107-0.162c-0.774-1.167-1.588-2.435-2.427-3.795
		c-0.128-0.207-0.254-0.409-0.383-0.621c-0.201-0.329-0.402-0.668-0.605-1.007c-0.171-0.287-0.342-0.574-0.515-0.867
		c-0.193-0.329-0.386-0.661-0.579-0.998c-0.188-0.326-0.375-0.657-0.563-0.991c-0.185-0.329-0.37-0.656-0.555-0.992
		c-0.215-0.39-0.429-0.789-0.644-1.188C25.082,17.109,24.537,16.073,24,15L24,15z"/>
</g>
</svg>
